<svg xmlns="http://www.w3.org/2000/svg" viewBox="0 0 400 400" preserveAspectRatio="xMidYMid slice" role="img" aria-label="Стейк на углях">
  <defs>
    <radialGradient id="bg1" cx="50%" cy="55%" r="65%">
      <stop offset="0%" stop-color="#3a1e10"/>
      <stop offset="60%" stop-color="#1a120a"/>
      <stop offset="100%" stop-color="#0c0a08"/>
    </radialGradient>
    <linearGradient id="meat" x1="0%" y1="0%" x2="100%" y2="100%">
      <stop offset="0%" stop-color="#5a2a1a"/>
      <stop offset="100%" stop-color="#2a140a"/>
    </linearGradient>
    <filter id="glow1"><feGaussianBlur stdDeviation="6"/></filter>
  </defs>
  <rect width="400" height="400" fill="url(#bg1)"/>
  <ellipse cx="200" cy="230" rx="160" ry="20" fill="#d4af37" opacity="0.2" filter="url(#glow1)"/>
  <ellipse cx="200" cy="230" rx="140" ry="35" fill="none" stroke="#d4af37" stroke-width="1" opacity="0.6"/>
  <g transform="translate(200 220)">
    <path d="M-90 -10 Q-95 -35 -60 -40 Q-20 -48 20 -45 Q60 -42 80 -30 Q95 -15 85 5 Q60 20 20 22 Q-30 24 -70 18 Q-95 10 -90 -10 Z" fill="url(#meat)"/>
    <path d="M-85 -8 Q-88 -28 -55 -32 Q-15 -38 22 -36 Q55 -32 75 -22 Q85 -10 78 2 Q55 14 20 16 Q-25 18 -65 12 Q-88 4 -85 -8 Z" fill="#3a1a0a" opacity="0.7"/>
    <path d="M-70 -18 Q-50 -26 -20 -24 Q20 -22 50 -26" stroke="#8a4a2a" stroke-width="2" fill="none" opacity="0.6"/>
    <path d="M-60 -6 Q-30 -12 10 -8 Q40 -6 60 -10" stroke="#8a4a2a" stroke-width="1.5" fill="none" opacity="0.5"/>
  </g>
  <g fill="#f2ca50" opacity="0.7">
    <circle cx="140" cy="150" r="1.5"/>
    <circle cx="260" cy="130" r="1"/>
    <circle cx="180" cy="110" r="1.2"/>
    <circle cx="240" cy="100" r="0.8"/>
    <circle cx="200" cy="80" r="1"/>
  </g>
  <g stroke="#d4af37" stroke-width="1" fill="none" opacity="0.25">
    <path d="M20 20 L40 20 M20 20 L20 40"/>
    <path d="M380 20 L360 20 M380 20 L380 40"/>
    <path d="M20 380 L40 380 M20 380 L20 360"/>
    <path d="M380 380 L360 380 M380 380 L380 360"/>
  </g>
</svg>
